<svg xmlns="http://www.w3.org/2000/svg" viewBox="0 0 720 420" width="720" height="420">
  <defs>
    <linearGradient id="sky" x1="0" y1="0" x2="0" y2="1">
      <stop offset="0" stop-color="#7cc6ff"/><stop offset="1" stop-color="#4aa3f0"/>
    </linearGradient>
  </defs>
  <rect width="720" height="420" fill="url(#sky)"/>
  <!-- confetti dots -->
  <g opacity="0.9"><circle cx="70" cy="60" r="8" fill="#fff"/><circle cx="640" cy="80" r="10" fill="#fff"/><circle cx="360" cy="40" r="7" fill="#fff"/><circle cx="500" cy="55" r="6" fill="#ffe27a"/><circle cx="180" cy="46" r="6" fill="#ffe27a"/></g>
  <!-- star -->
  <path d="M150 120 l24 52 57 6 -43 38 12 56 -50 -30 -50 30 12 -56 -43 -38 57 -6 Z" fill="#ffd23f" stroke="#f2b134" stroke-width="4"/>
  <!-- heart -->
  <path d="M400 130 c-18 -30 -70 -22 -70 18 c0 34 46 56 70 78 c24 -22 70 -44 70 -78 c0 -40 -52 -48 -70 -18 Z" fill="#ff6b8a"/>
  <!-- circle -->
  <circle cx="600" cy="180" r="46" fill="#3ecf8e"/>
  <circle cx="600" cy="180" r="20" fill="#fff"/>
  <!-- triangle -->
  <path d="M250 300 l60 0 -30 -58 Z" fill="#ff8c42"/>
  <!-- rounded square -->
  <rect x="470" y="250" width="86" height="86" rx="18" fill="#a06be0"/>
  <!-- squiggle -->
  <path d="M70 300 q30 -40 60 0 q30 40 60 0 q30 -40 60 0" fill="none" stroke="#fff" stroke-width="10" stroke-linecap="round"/>
</svg>
