<svg xmlns="http://www.w3.org/2000/svg" viewBox="0 0 100 100"><rect width="100" height="100" fill="#ffffff"/><path d="M77.55,7.72L76.62,8.84L72.76,16.89L71.99,18.08L72.30,18.82L74.00,20.31L73.07,22.85L72.61,23.52L71.99,25.90L72.30,28.06L73.23,28.88L75.85,29.93L79.71,30.67L84.18,32.46L87.12,32.83L87.89,34.10L87.73,36.41L88.50,38.49L88.50,42.07L87.58,45.28L82.95,46.77L80.63,48.41L79.86,49.23L80.48,50.12L80.79,51.47L76.47,54.60L71.99,58.77L70.91,61.53L69.99,64.81L68.75,66.98L65.20,69.96L61.81,76.08L60.11,80.10L51.47,89.66L43.90,94.36L41.59,96L28.16,95.70L27.08,89.28L25.08,80.48L20.45,72.57L19.98,69.29L20.14,62.87L20.14,53.85L19.83,49.08L19.98,45.50L20.60,39.39L20.45,35.74L17.51,31.57L13.66,27.09L11.65,24.86L11.49,23.07L11.49,21.43L12.11,19.05L13.66,16.44L15.20,16.14L19.37,17.18L23.53,19.42L25.85,24.49L27.55,25.23L30.79,25.23L38.81,24.56L40.82,24.64L44.52,23.44L48.07,21.28L49.15,19.05L49.92,14.06L50.69,5.12L52.55,5.04L57.64,8.17L58.72,8.39L59.80,8.32L61.65,6.76L63.81,5.42L65.36,5.49L71.22,4L74.46,6.68L76.47,7.50Z" fill="#1c1e24" fill-rule="evenodd"/></svg>