<svg xmlns="http://www.w3.org/2000/svg" viewBox="0 0 100 100"><rect width="100" height="100" fill="#ffffff"/><path d="M95.91,14.13L95.95,16.41L95.95,45.12L96,45.25L96,50.58L96,85.92L85.77,85.95L85.44,85.98L74.04,86.00L67.58,85.98L64.47,85.91L49.06,85.91L41.80,85.94L30.39,85.94L23.98,85.97L17.24,85.98L14.79,86.03L8.53,86.01L4.14,85.98L4.14,79.36L4.19,76.06L4.14,68.38L4.14,58.07L4.19,55.57L4.19,38.70L4.14,38.30L4.14,30.22L4.09,26.01L4.14,23.80L4.05,21.03L4,16.55L4.05,14.07L7.58,14.04L8.62,14.23L12.63,14.20L13.14,14.07L15.26,14.15L16.44,14.02L20.54,14.05L29.69,13.97L30.20,14.08L40.62,14.08L55.51,14.08L56.17,14.15L62.96,14.18L71.35,14.20L72.43,14.08L78.66,14.08L90.49,14.12Z" fill="#1c1e24" fill-rule="evenodd"/></svg>